<?xml version="1.0" standalone="no"?>
<!DOCTYPE svg PUBLIC "-//W3C//DTD SVG 20010904//EN"
 "http://www.w3.org/TR/2001/REC-SVG-20010904/DTD/svg10.dtd">
<svg version="1.0" xmlns="http://www.w3.org/2000/svg"
 width="907.000000pt" height="907.000000pt" viewBox="0 0 907.000000 907.000000"
 preserveAspectRatio="xMidYMid meet">
<metadata>
Created by potrace 1.11, written by Peter Selinger 2001-2013
</metadata>
<g transform="translate(0.000000,907.000000) scale(0.100000,-0.100000)"
fill="#000000" stroke="none">
<path d="M4205 8954 c-406 -37 -740 -105 -1080 -219 -1517 -510 -2645 -1806
-2945 -3378 -54 -286 -64 -419 -64 -822 0 -403 11 -538 64 -822 341 -1788
1745 -3192 3533 -3533 282 -53 419 -64 822 -64 403 0 537 10 822 64 1788 341
3192 1745 3533 3533 53 284 64 419 64 822 0 403 -11 538 -64 822 -341 1788
-1745 3192 -3533 3532 -263 50 -415 63 -772 66 -187 1 -358 1 -380 -1z m765
-549 c881 -103 1691 -494 2316 -1119 1191 -1192 1484 -3006 724 -4501 -380
-750 -975 -1345 -1725 -1725 -412 -210 -845 -339 -1320 -396 -209 -25 -651
-25 -860 0 -475 57 -908 186 -1320 396 -1704 865 -2530 2809 -1968 4630 181
587 523 1152 967 1596 627 626 1459 1027 2321 1118 228 24 223 24 485 21 137
-2 304 -11 380 -20z"/>
<path d="M3110 5945 l0 -1425 480 0 480 0 0 1425 0 1425 -480 0 -480 0 0
-1425z"/>
<path d="M4987 5708 c-3 -1824 1 -1710 -63 -1978 -83 -353 -257 -713 -499
-1035 -278 -370 -624 -656 -1075 -890 -85 -44 -154 -84 -152 -90 4 -16 322
-10 452 9 627 93 1244 437 1670 931 355 413 546 812 621 1300 10 60 14 490 16
1748 l4 1667 -485 0 -485 0 -4 -1662z"/>
</g>
</svg>
